<svg width="116" height="120" viewBox="0 0 116 120" fill="none" xmlns="http://www.w3.org/2000/svg">
<g id="&#240;&#159;&#166;&#134; icon &#34;Map&#34;">
<path id="Vector" d="M58.25 89.588L36.2689 57.4857C32.671 53.0924 30.354 47.7324 29.5878 42.0299C28.8215 36.3274 29.6376 30.5171 31.9409 25.2757C34.2442 20.0343 37.94 15.5776 42.5978 12.4245C47.2556 9.27138 52.6837 7.55174 58.25 7.46582C65.9659 7.54468 73.3371 10.7828 78.7492 16.4709C84.1613 22.1591 87.1731 29.8337 87.125 37.8137C87.1279 44.7752 84.8363 51.5298 80.6281 56.9631L58.25 89.588ZM58.25 14.9315C52.4456 15.0004 46.9049 17.4488 42.8445 21.7391C38.7841 26.0293 36.536 31.8107 36.5937 37.8137C36.6179 43.2928 38.524 48.5848 41.9717 52.745L58.25 76.5978L74.9614 52.2598C78.138 48.159 79.8806 43.068 79.9062 37.8137C79.964 31.8107 77.7159 26.0293 73.6555 21.7391C69.5951 17.4488 64.0544 15.0004 58.25 14.9315Z" fill="#4D4B47"/>
<path id="Vector_2" d="M58.25 41.0614C62.2368 41.0614 65.4688 37.719 65.4688 33.5958C65.4688 29.4726 62.2368 26.1301 58.25 26.1301C54.2632 26.1301 51.0312 29.4726 51.0312 33.5958C51.0312 37.719 54.2632 41.0614 58.25 41.0614Z" fill="#4D4B47"/>
<path id="Vector_3" d="M101.562 44.7939H94.3438V52.2596H101.562V104.519H14.9375V52.2596H22.1562V44.7939H14.9375C13.023 44.7939 11.1869 45.5805 9.83307 46.9806C8.47929 48.3807 7.71875 50.2796 7.71875 52.2596V104.519C7.71875 106.499 8.47929 108.398 9.83307 109.798C11.1869 111.198 13.023 111.985 14.9375 111.985H101.562C103.477 111.985 105.313 111.198 106.667 109.798C108.021 108.398 108.781 106.499 108.781 104.519V52.2596C108.781 50.2796 108.021 48.3807 106.667 46.9806C105.313 45.5805 103.477 44.7939 101.562 44.7939Z" fill="#4D4B47"/>
</g>
</svg>
