<svg width="110" height="108" viewBox="0 0 110 108" fill="none" xmlns="http://www.w3.org/2000/svg">
<g id="&#240;&#159;&#166;&#134; icon &#34;Notebook&#34;">
<path id="Vector" d="M65.3125 33.6636H89.375V40.3963H65.3125V33.6636Z" fill="#4D4B47"/>
<path id="Vector_2" d="M65.3125 50.4956H89.375V57.2283H65.3125V50.4956Z" fill="#4D4B47"/>
<path id="Vector_3" d="M65.3125 67.3271H89.375V74.0599H65.3125V67.3271Z" fill="#4D4B47"/>
<path id="Vector_4" d="M96.25 16.832H13.75C11.9272 16.8338 10.1796 17.5437 8.89065 18.806C7.60173 20.0682 6.87682 21.7797 6.875 23.5648V84.1593C6.87709 85.9443 7.60209 87.6556 8.89095 88.9178C10.1798 90.1799 11.9273 90.8899 13.75 90.892H96.25C98.0726 90.8896 99.8199 90.1795 101.109 88.9174C102.397 87.6553 103.123 85.9442 103.125 84.1593V23.5648C103.123 21.7798 102.398 20.0684 101.109 18.8063C99.8202 17.5441 98.0727 16.8341 96.25 16.832ZM13.75 23.5648H51.5625V84.1593H13.75V23.5648ZM58.4375 84.1593V23.5648H96.25L96.2569 84.1593H58.4375Z" fill="#4D4B47"/>
</g>
</svg>
