<svg width="90" height="85" viewBox="0 0 90 85" fill="none" xmlns="http://www.w3.org/2000/svg">
<g id="&#240;&#159;&#166;&#134; icon &#34;save&#34;">
<path id="Vector" d="M88.5879 18.6756L68.6362 1.23441C68.1896 0.841818 67.6584 0.530567 67.0732 0.31868C66.4881 0.106794 65.8607 -0.00151728 65.2273 1.60551e-05H4.82143C3.54316 0.00131744 2.31768 0.445789 1.41381 1.23593C0.509937 2.02607 0.00148871 3.09735 0 4.21477V80.0804C0.00148871 81.1978 0.509937 82.2691 1.41381 83.0593C2.31768 83.8494 3.54316 84.2939 4.82143 84.2952H85.1786C86.4568 84.2939 87.6823 83.8494 88.5862 83.0593C89.49 82.2691 89.9985 81.1978 90 80.0804V21.6556C90.0017 21.1019 89.8778 20.5535 89.6355 20.042C89.3931 19.5304 89.037 19.066 88.5879 18.6756ZM57.8571 5.61969V22.4787H28.9286V5.61969H57.8571ZM83.5714 78.6755H6.42857V5.61969H22.5V28.0984H64.2857V5.61969H64.5615L83.5714 22.2376V78.6755Z" fill="#4D4B47"/>
<path id="Vector_2" d="M44.1965 36.5278C40.5411 36.5278 36.9677 37.4754 33.9284 39.2507C30.889 41.026 28.5201 43.5493 27.1212 46.5016C25.7224 49.4538 25.3564 52.7023 26.0695 55.8364C26.7826 58.9705 28.5429 61.8493 31.1277 64.1088C33.7124 66.3684 37.0056 67.9071 40.5908 68.5305C44.176 69.1539 47.8921 68.834 51.2693 67.6111C54.6465 66.3883 57.533 64.3174 59.5638 61.6605C61.5947 59.0036 62.6786 55.8799 62.6786 52.6844C62.6733 48.4008 60.7244 44.2941 57.2595 41.2651C53.7946 38.2362 49.0966 36.5325 44.1965 36.5278ZM44.1965 63.2213C41.8125 63.2213 39.4821 62.6033 37.4999 61.4455C35.5177 60.2877 33.9728 58.6421 33.0605 56.7167C32.1482 54.7913 31.9094 52.6727 32.3745 50.6288C32.8396 48.5848 33.9876 46.7073 35.6733 45.2337C37.3591 43.7601 39.5068 42.7565 41.845 42.35C44.1831 41.9434 46.6067 42.1521 48.8092 42.9496C51.0117 43.7471 52.8942 45.0976 54.2187 46.8304C55.5431 48.5632 56.2501 50.6004 56.2501 52.6844C56.2465 55.478 54.9754 58.1563 52.7157 60.1316C50.456 62.107 47.3922 63.2181 44.1965 63.2213Z" fill="#4D4B47"/>
</g>
</svg>
