<svg width="115" height="74" viewBox="0 0 115 74" fill="none" xmlns="http://www.w3.org/2000/svg">
<g id="&#240;&#159;&#166;&#134; icon &#34;laptop&#34;">
<path id="Vector" d="M101.584 60.3179C103.108 60.3163 104.57 59.7863 105.648 58.844C106.726 57.9016 107.332 56.624 107.334 55.2914V5.02649C107.332 3.69386 106.726 2.41625 105.648 1.47394C104.57 0.531625 103.108 0.00155202 101.584 0H13.417C11.8925 0.00155202 10.431 0.531625 9.35309 1.47394C8.27514 2.41625 7.66877 3.69386 7.66699 5.02649V55.2914C7.66877 56.624 8.27514 57.9016 9.35309 58.844C10.431 59.7863 11.8925 60.3163 13.417 60.3179H101.584ZM15.3337 6.70199H99.667V53.6159H15.3337V6.70199Z" fill="#4D4B47"/>
<path id="Vector_2" d="M115 67.0198H0V73.7218H115V67.0198Z" fill="#4D4B47"/>
</g>
</svg>
