<svg width="50" height="47" viewBox="0 0 50 47" fill="none" xmlns="http://www.w3.org/2000/svg">
<path id="Vector" d="M46.1538 7.69231H36.5366V5.76923C36.5348 4.23967 35.9264 2.77326 34.8449 1.6917C33.7633 0.610139 32.2969 0.00174961 30.7674 0H19.2289C17.6993 0.00174961 16.2329 0.610139 15.1514 1.6917C14.0698 2.77326 13.4614 4.23967 13.4597 5.76923V7.69231H3.84615C2.82645 7.69347 1.84884 8.09907 1.1278 8.82011C0.406759 9.54115 0.0011662 10.5188 0 11.5385V42.3077C0.0011662 43.3274 0.406759 44.305 1.1278 45.026C1.84884 45.7471 2.82645 46.1527 3.84615 46.1538H46.1538C47.1735 46.1527 48.1512 45.7471 48.8722 45.026C49.5932 44.305 49.9988 43.3274 50 42.3077V11.5385C49.9988 10.5188 49.5932 9.54115 48.8722 8.82011C48.1512 8.09907 47.1735 7.69347 46.1538 7.69231ZM17.3058 5.76923C17.3064 5.25938 17.5092 4.77057 17.8697 4.41005C18.2302 4.04953 18.719 3.84674 19.2289 3.84615H30.7674C31.2772 3.84674 31.766 4.04953 32.1265 4.41005C32.487 4.77057 32.6898 5.25938 32.6904 5.76923V7.69231H17.3058V5.76923ZM46.1538 11.5385L46.1546 21.5399C39.663 25.0738 32.3893 26.9245 24.9981 26.9231C17.6087 26.9245 10.3366 25.0746 3.84615 21.5422V11.5385H46.1538ZM46.1538 42.3077H3.84615V25.8743C10.4319 29.0959 17.6667 30.7701 24.9981 30.7692C32.3314 30.7701 39.5679 29.095 46.1549 25.8719L46.1562 42.3076L46.1538 42.3077ZM20.1904 21.1538C20.1905 20.6438 20.3931 20.1547 20.7537 19.7941C21.1144 19.4334 21.6035 19.2308 22.1135 19.2308H27.8827C28.3928 19.2308 28.8819 19.4334 29.2426 19.794C29.6032 20.1547 29.8058 20.6438 29.8058 21.1538C29.8058 21.6639 29.6032 22.153 29.2426 22.5137C28.8819 22.8743 28.3928 23.0769 27.8827 23.0769H22.1135C21.6035 23.0769 21.1144 22.8743 20.7537 22.5136C20.3931 22.153 20.1905 21.6639 20.1904 21.1538Z" fill="white"/>
</svg>
