<svg width="221" height="97" viewBox="0 0 221 97" fill="none" xmlns="http://www.w3.org/2000/svg">
<path id="Vector" fill-rule="evenodd" clip-rule="evenodd" d="M44.6277 29.6453L31.3952 14.5534H57.9984L44.7659 29.6453H178.641V0.100647L220.606 37.4153H187.38V76.85H25.287C11.8789 76.85 0.911133 67.098 0.911133 55.175V29.6453H44.6277ZM110.196 90.9662H107.99V89.6577H111.929V96.4874H110.614L110.502 95.5095C109.966 96.289 109.089 96.6632 107.935 96.6632C105.873 96.6632 104.643 95.8174 104.21 94.0209C104.069 93.4404 104.023 92.831 104.023 92.2385V87.0298C104.023 86.4366 104.064 85.8238 104.203 85.2428C104.644 83.3942 105.947 82.6353 108.027 82.6353C110.969 82.6353 111.867 84.2728 111.867 86.6596V87.3267H110.106V86.6596C110.106 85.2377 109.958 84.0153 108.046 84.0153C106.598 84.0153 106.058 84.7145 105.922 85.9163C105.885 86.2447 105.874 86.579 105.874 86.9092V92.3807C105.874 92.8021 105.896 93.2385 105.976 93.654C106.193 94.7621 106.786 95.2587 108.07 95.2587C110.039 95.2587 110.196 93.7678 110.196 92.3482V90.9662ZM99.3024 92.3391V82.7807H100.944V96.4874H99.5889L95.1419 86.8098V96.4874H93.4911V82.7807H94.8912L99.3024 92.3391ZM88.243 96.4874V82.7807H90.0688V96.4874H88.243ZM81.406 84.1281H78.3984V82.7807H86.1937V84.1281H83.2574V96.4874H81.406V84.1281ZM73.3578 95.1628H77.6237V96.4874H71.5067V82.7807H73.3578V95.1628ZM64.2505 96.6578C62.1 96.6578 60.6801 95.8962 60.311 93.9435C60.2304 93.5199 60.2032 93.0843 60.2032 92.6553V82.7807H62.0017V92.6937C62.0017 92.9818 62.0146 93.2747 62.062 93.5601C62.2505 94.7196 62.9116 95.2587 64.2505 95.2587C65.4612 95.2587 66.125 94.7989 66.3804 93.7478C66.4644 93.4042 66.4927 93.0447 66.4927 92.6937V82.7807H68.2822V92.6553C68.2822 93.0848 68.2514 93.5184 68.1685 93.9421C67.7923 95.8529 66.3664 96.6578 64.2505 96.6578ZM54.0611 96.6497C51.3948 96.6497 50.2683 95.0428 50.0847 92.8538L50.0715 92.6981L51.7432 92.2706L51.771 92.4984C51.8082 92.8048 51.8577 93.1124 51.9284 93.4147C52.1783 94.4883 52.7285 95.2501 54.0702 95.2501C55.3857 95.2501 55.9667 94.6696 55.9667 93.514C55.9667 92.3007 55.108 91.5746 54.2012 90.7753L51.542 88.5097C50.6388 87.7407 50.1211 86.8066 50.1211 85.6885C50.1211 83.7214 51.5566 82.6468 53.7083 82.6353C53.7289 82.6353 53.7504 82.6353 53.7707 82.6353C56.3804 82.6353 57.3428 84.0439 57.5217 86.1953L57.5341 86.3559L55.9177 86.7273L55.8968 86.5C55.7826 85.2732 55.4942 84.0072 53.8357 84.0072C53.7996 84.0072 53.7628 84.0072 53.7339 84.0072C52.5686 84.0368 51.8277 84.4918 51.8277 85.5845C51.8277 86.3566 52.2116 86.8602 52.8179 87.381L55.4556 89.606C56.6828 90.6415 57.7193 91.8595 57.7193 93.4267C57.7193 95.4356 56.3063 96.6497 54.0611 96.6497ZM45.6163 92.3391V82.7807H47.2582V96.4874H45.9033L41.4561 86.8093V96.4874H39.805V82.7807H41.2051L45.6163 92.3391ZM32.6606 96.6578C30.5907 96.6578 29.2749 95.8915 28.7908 94.0681C28.6438 93.5118 28.5946 92.9269 28.5946 92.3565V86.8294C28.5946 86.2651 28.6435 85.6851 28.7944 85.1354C29.2832 83.3572 30.6656 82.6353 32.6606 82.6353C34.6645 82.6353 36.0354 83.3607 36.5255 85.1435C36.6761 85.6909 36.7259 86.2675 36.7259 86.8294V92.3731C36.7259 92.833 36.6978 93.3002 36.612 93.7546C36.2421 95.7215 34.8885 96.6578 32.6606 96.6578ZM32.6606 95.2587C33.8936 95.2587 34.5338 94.8358 34.7674 93.7524C34.8461 93.3885 34.8654 93.0006 34.8654 92.6311V86.6045C34.8654 86.2354 34.8461 85.8488 34.7674 85.4866C34.5341 84.4061 33.8777 84.0153 32.6606 84.0153C31.4392 84.0153 30.7914 84.4049 30.5555 85.4866C30.4768 85.85 30.455 86.2342 30.455 86.6045V92.6311C30.455 93.0018 30.4771 93.3873 30.5555 93.7524C30.7911 94.8343 31.4266 95.2587 32.6606 95.2587ZM169.585 90.1787V96.4874H167.733V82.7807H171.547C174.302 82.7807 175.332 84.2059 175.332 86.5007C175.332 88.6621 174.145 90.1787 171.565 90.1787H169.585ZM169.585 88.8623H171.167C173.056 88.8623 173.517 88.09 173.517 86.5083C173.517 84.807 173.234 84.0953 171.185 84.0953H169.585V88.8623ZM160.478 96.6578C158.327 96.6578 156.907 95.8967 156.538 93.9435C156.457 93.5199 156.43 93.0843 156.43 92.6553V82.7807H158.229V92.6937C158.229 92.9818 158.241 93.2752 158.288 93.5603C158.479 94.7193 159.138 95.2587 160.478 95.2587C161.69 95.2587 162.35 94.7989 162.607 93.7478C162.691 93.4042 162.72 93.0447 162.72 92.6937V82.7807H164.509V92.6553C164.509 93.0848 164.478 93.5184 164.395 93.9421C164.02 95.8521 162.592 96.6578 160.478 96.6578ZM149.44 96.6578C147.37 96.6578 146.053 95.8918 145.57 94.0681C145.424 93.5118 145.374 92.9269 145.374 92.3565V86.8294C145.374 86.2648 145.423 85.6851 145.574 85.1354C146.064 83.3572 147.444 82.6353 149.44 82.6353C151.444 82.6353 152.815 83.3604 153.305 85.1435C153.455 85.6909 153.505 86.267 153.505 86.8294V92.3731C153.505 92.833 153.477 93.2997 153.391 93.7541C153.02 95.7212 151.669 96.6578 149.44 96.6578ZM149.44 95.2587C150.673 95.2587 151.313 94.8361 151.546 93.7524C151.625 93.388 151.645 93.0006 151.645 92.6311V86.6045C151.645 86.2352 151.625 85.8493 151.546 85.4866C151.312 84.4029 150.661 84.0153 149.44 84.0153C148.22 84.0153 147.569 84.4049 147.335 85.4866C147.256 85.8505 147.234 86.234 147.234 86.6045V92.6311C147.234 93.0018 147.257 93.3868 147.335 93.7524C147.567 94.8338 148.209 95.2587 149.44 95.2587ZM140.509 89.6195L142.851 96.4874H141.004L138.811 89.9379H136.838V96.4874H134.986V82.7807H138.608C141.314 82.7807 142.538 83.959 142.538 86.3387C142.538 87.7383 142.139 89.2 140.509 89.6195ZM136.838 88.6289H138.528C140.327 88.6289 140.733 87.8156 140.733 86.3387C140.733 84.8655 140.365 84.1034 138.574 84.1034H136.838V88.6289ZM130.038 90.9662H127.832V89.6577H131.772V96.4874H130.456L130.344 95.5095C129.808 96.289 128.931 96.6632 127.777 96.6632C124.634 96.6632 123.865 94.6687 123.865 92.2385V87.0298C123.865 86.4366 123.906 85.8238 124.045 85.2428C124.488 83.3937 125.787 82.6353 127.869 82.6353C130.811 82.6353 131.71 84.2728 131.71 86.6596V87.3267H129.948V86.6596C129.948 85.2377 129.8 84.0153 127.888 84.0153C126.438 84.0153 125.903 84.7142 125.764 85.9163C125.727 86.2447 125.716 86.579 125.716 86.9092V92.3807C125.716 93.8664 125.884 95.2587 127.912 95.2587C129.881 95.2587 130.038 93.7678 130.038 92.3482V90.9662ZM22.174 96.6578C19.9015 96.6578 18.5959 95.6253 18.2617 93.6472C18.1874 93.1981 18.1607 92.7393 18.1607 92.2853V86.9887C18.1607 86.5203 18.1885 86.0463 18.2684 85.5825C18.6107 83.5968 19.9147 82.6353 22.174 82.6353C24.0576 82.6353 25.3013 83.3259 25.7529 84.9935C25.8947 85.5196 25.9406 86.0737 25.9406 86.6133V87.625H24.1704V86.651C24.1704 86.2714 24.1564 85.8767 24.0923 85.5008C23.9158 84.4614 23.3811 84.0153 22.1833 84.0153C20.8879 84.0153 20.3085 84.507 20.1085 85.6256C20.038 86.0184 20.0215 86.432 20.0215 86.8294V92.4857C20.0215 93.947 20.2139 95.2587 22.1833 95.2587C23.5278 95.2587 23.9874 94.6239 24.1217 93.5155C24.1594 93.2023 24.1704 92.8831 24.1704 92.5677V91.5066H25.9406V92.4776C25.9406 92.925 25.915 93.3777 25.8393 93.8202C25.5201 95.6948 24.3331 96.6578 22.174 96.6578ZM3.11288 31.6031H185.178V74.8922H25.287C13.0964 74.8922 3.11288 66.0197 3.11288 55.175V31.6031ZM180.843 29.6453V4.82726L215.29 35.4575H187.38V29.6453H180.843ZM57.7292 65.0939H62.4074V58.4046H57.7292V65.0939ZM19.4614 65.0939H24.1335V58.4046H19.4614V65.0939ZM28.3868 58.4046L30.6463 65.0939H35.344L32.8101 58.4046H28.3868ZM80.7799 65.0939H84.9662L85.859 59.8176H91.9436L92.8796 65.0939H96.8562L95.5044 58.4046H82.1458L80.7799 65.0939ZM113.371 58.4046V59.3478C113.371 59.697 113.356 60.0482 113.317 60.3697C113.168 61.958 112.226 63.213 110.278 63.213C108.305 63.213 107.458 61.9935 107.232 60.4187C107.182 60.0648 107.167 59.7043 107.167 59.3478V58.4046H102.526C102.533 59.4765 102.624 60.6064 102.925 61.6426C103.88 64.9319 106.845 65.507 110.278 65.507C113.732 65.507 116.647 64.928 117.621 61.6372C117.927 60.6052 118.018 59.4738 118.024 58.4046H113.371ZM126.055 65.0939H132.603C138.903 65.0939 141.443 63.9506 141.612 58.4046H136.754V59.2063C136.754 61.8325 135.77 62.9465 132.707 62.9465H130.727V58.4046H126.055V65.0939ZM149.481 65.0939H154.141V58.4046H149.481V65.0939ZM165.035 65.0939H169.713V58.4046H165.035V65.0939ZM42.3668 65.0939H47.0268V58.4046H42.3668V65.0939ZM56.4288 66.2502V44.6075H52.0916V39.8317H68.0262V44.6075H63.7078V66.2502H56.4288ZM18.1607 66.2502V39.8317H25.4339V50.1226L29.9302 39.8317H37.0809L31.6919 51.8306L37.1541 66.2502H29.6792L25.8132 54.8059L25.4339 55.2249V66.2502H18.1607ZM79.2219 66.2502L84.6173 39.8317H93.0711L98.4112 66.2502H91.768L90.8322 60.9742H86.9784L86.0855 66.2502H79.2219ZM87.5533 57.2483H90.2265L88.8809 47.3812L87.5533 57.2483ZM110.278 66.6636C106.222 66.6636 102.779 65.7725 101.665 61.9316C101.371 60.9196 101.225 59.7014 101.225 58.2656V39.8317H108.467V59.3478C108.467 59.7122 108.486 60.0171 108.522 60.2726C108.663 61.2456 109.007 62.0564 110.278 62.0564C111.508 62.0564 111.929 61.2415 112.021 60.2726C112.052 60.0171 112.07 59.7122 112.07 59.3478V39.8317H119.325V58.2656C119.325 59.7014 119.178 60.9196 118.879 61.9316C117.738 65.776 114.361 66.6636 110.278 66.6636ZM132.028 61.7901H132.707C135.045 61.7901 135.454 61.171 135.454 59.2063V46.8105C135.454 44.83 135.032 44.2918 132.707 44.2918H132.028V61.7901ZM124.755 66.2502V39.8317H132.584C139.876 39.8317 142.922 41.5421 142.922 48.2571V57.7867C142.922 64.498 139.914 66.2502 132.603 66.2502H124.755ZM148.18 66.2502V39.8317H155.441V66.2502H148.18ZM163.734 66.2502V44.6075H159.397V39.8317H175.332V44.6075H171.013V66.2502H163.734ZM41.0664 66.2502V39.8317H48.3272V66.2502H41.0664ZM35.9035 16.5112H53.49L44.6968 26.54L35.9035 16.5112Z" fill="white"/>
</svg>
