<svg width="90" height="90" viewBox="0 0 90 90" fill="none" xmlns="http://www.w3.org/2000/svg">
<g id="&#240;&#159;&#166;&#134; icon &#34;documents alt&#34;">
<path id="Vector" d="M6.42857 78.75H12.8571V84.375C12.8571 87.48 15.7371 90 19.2857 90H83.5714C87.12 90 90 87.48 90 84.375V16.875C90 13.77 87.12 11.25 83.5714 11.25H77.1429V5.625C77.1429 2.52 74.2629 0 70.7143 0H6.42857C2.88 0 0 2.52 0 5.625V73.125C0 76.23 2.88 78.75 6.42857 78.75ZM70.7143 73.125H6.42857V5.625H70.7143V73.125ZM83.5714 16.875V84.375H19.2857V78.75H70.7143C74.2629 78.75 77.1429 76.23 77.1429 73.125V16.875H83.5714ZM25.7143 19.6875C25.7143 21.24 27.1543 22.5 28.9286 22.5H61.0714C62.8457 22.5 64.2857 21.24 64.2857 19.6875C64.2857 18.135 62.8457 16.875 61.0714 16.875H28.9286C27.1543 16.875 25.7143 18.135 25.7143 19.6875ZM16.0714 39.375H61.0714C62.8457 39.375 64.2857 38.115 64.2857 36.5625C64.2857 35.01 62.8457 33.75 61.0714 33.75H16.0714C14.2971 33.75 12.8571 35.01 12.8571 36.5625C12.8571 38.115 14.2971 39.375 16.0714 39.375ZM16.0714 50.625H61.0714C62.8457 50.625 64.2857 49.365 64.2857 47.8125C64.2857 46.26 62.8457 45 61.0714 45H16.0714C14.2971 45 12.8571 46.26 12.8571 47.8125C12.8571 49.365 14.2971 50.625 16.0714 50.625ZM16.0714 61.875H61.0714C62.8457 61.875 64.2857 60.615 64.2857 59.0625C64.2857 57.51 62.8457 56.25 61.0714 56.25H16.0714C14.2971 56.25 12.8571 57.51 12.8571 59.0625C12.8571 60.615 14.2971 61.875 16.0714 61.875Z" fill="#4D4B47"/>
</g>
</svg>
