<svg width="35" height="26" viewBox="0 0 35 26" fill="none" xmlns="http://www.w3.org/2000/svg">
<path id="Vector" fill-rule="evenodd" clip-rule="evenodd" d="M2.48295 0C1.82443 0 1.19288 0.271614 0.72724 0.755089C0.261596 1.23856 0 1.8943 0 2.57804L0 23.2023C0 24.6254 1.11236 25.7804 2.48295 25.7804H31.569C32.2275 25.7804 32.859 25.5087 33.3247 25.0253C33.7903 24.5418 34.0519 23.8861 34.0519 23.2023V2.57804C34.0519 1.8943 33.7903 1.23856 33.3247 0.755089C32.859 0.271614 32.2275 0 31.569 0H2.48295ZM2.12824 2.57804C2.12824 2.48036 2.16562 2.38668 2.23214 2.31761C2.29866 2.24855 2.38888 2.20974 2.48295 2.20974H31.569C31.663 2.20974 31.7533 2.24855 31.8198 2.31761C31.8863 2.38668 31.9237 2.48036 31.9237 2.57804V3.83317L17.2246 14.1453C17.1659 14.1865 17.0968 14.2085 17.026 14.2085C16.9552 14.2085 16.886 14.1865 16.8273 14.1453L2.12824 3.83317V2.57804ZM2.12824 6.4996V23.2023C2.12824 23.4056 2.28715 23.5706 2.48295 23.5706H31.569C31.663 23.5706 31.7533 23.5318 31.8198 23.4627C31.8863 23.3937 31.9237 23.3 31.9237 23.2023V6.4996L18.4164 15.9765C17.5765 16.5657 16.4755 16.5657 15.6355 15.9765L2.12824 6.4996Z" fill="#6A6A6A" fill-opacity="0.43"/>
</svg>
