<svg width="30" height="30" viewBox="0 0 30 30" fill="none" xmlns="http://www.w3.org/2000/svg">
<g id="&#240;&#159;&#166;&#134; icon &#34;phone&#34;">
<path id="Vector" d="M1.45937 3.7403V6.74239C1.45937 18.7235 10.9334 28.4362 22.6202 28.4362H25.5389C26.7479 28.4362 27.728 27.4314 27.728 26.192V22.3543C27.728 21.3884 27.1251 20.5308 26.2312 20.2253L21.5856 18.6378C20.6491 18.3178 19.6196 18.6799 19.072 19.522L18.0082 21.1579C17.4606 22 16.431 22.3621 15.4945 22.0421L13.2684 21.2814C10.9856 20.5012 9.23405 18.6031 8.6009 16.2231L7.6858 12.7832C7.38011 11.6341 8.00329 10.4403 9.10547 10.0637L9.98483 9.76318C10.9048 9.4488 11.4649 8.49501 11.3055 7.51438L10.632 3.37136C10.4561 2.28925 9.54281 1.49612 8.47272 1.49612H3.64842C2.43944 1.49612 1.45937 2.50088 1.45937 3.7403ZM0 3.7403C0 1.67459 1.63345 0 3.64842 0H8.47272C10.2562 0 11.7783 1.32187 12.0715 3.1254L12.745 7.26842C13.0225 8.97523 12.0476 10.6353 10.4463 11.1825L9.56697 11.483C9.19957 11.6086 8.99184 12.0065 9.09374 12.3895L10.0088 15.8294C10.5136 17.7268 11.91 19.2401 13.7299 19.862L15.956 20.6227C16.2682 20.7294 16.6114 20.6087 16.7939 20.328L17.8577 18.6921C18.7704 17.2887 20.4863 16.6851 22.0471 17.2185L26.6927 18.806C28.1825 19.3151 29.1874 20.7444 29.1874 22.3543V26.192C29.1874 28.2577 27.5539 29.9323 25.5389 29.9323H22.6202C10.1274 29.9323 0 19.5498 0 6.74239V3.7403Z" fill="#6A6A6A" fill-opacity="0.43"/>
</g>
</svg>
