<svg width="35" height="41" viewBox="0 0 35 41" fill="none" xmlns="http://www.w3.org/2000/svg">
<g id="&#240;&#159;&#166;&#134; icon &#34;Tenge&#34;">
<path id="Vector" d="M33.9062 11.6667H1.09375C0.492188 11.6667 0 12.1589 0 12.7604V17.8646C0 18.4661 0.492188 18.9583 1.09375 18.9583H13.8542V39.7396C13.8542 40.3411 14.3464 40.8333 14.9479 40.8333H20.0521C20.6536 40.8333 21.1458 40.3411 21.1458 39.7396V18.9583H33.9062C34.5078 18.9583 35 18.4661 35 17.8646V12.7604C35 12.1589 34.5078 11.6667 33.9062 11.6667ZM33.9062 0H1.09375C0.492188 0 0 0.492187 0 1.09375V6.19792C0 6.79948 0.492188 7.29167 1.09375 7.29167H33.9062C34.5078 7.29167 35 6.79948 35 6.19792V1.09375C35 0.492187 34.5078 0 33.9062 0Z" fill="white"/>
</g>
</svg>
